# xmcd
#
# Track frame offsets:
#	150
#	11114
#	32861
#	45859
#	57464
#	72238
#	84623
#	107519
#	128388
#	144534
#
# Disc length: 2144 seconds
#
# Revision: 1
# Processed by: cddbd v1.5.1PL0 Copyright (c) Steve Scherf et al.
# Submitted via: audiograbber 1.83.01
#
DISCID=7f085e0a
DTITLE=Al Hughes - Al Hughes
DYEAR=1998
DGENRE=Blues
TTITLE0=Lounge Lizard Blues
TTITLE1=Gotta Move Onya Baby
TTITLE2=Forgiveness Blues
TTITLE3=Gravity Shoes
TTITLE4=Barfly Blues
TTITLE5=Eddie Walker's Rag
TTITLE6=Be The Man You Are
TTITLE7=Blues For The 90's
TTITLE8=Searchin' For My Baby
TTITLE9=Before My Very Eyes
EXTD=http://www.al-hughes.com
EXTT0=
EXTT1=
EXTT2=
EXTT3=
EXTT4=
EXTT5=
EXTT6=
EXTT7=
EXTT8=
EXTT9=
PLAYORDER=
